<svg id="Layer_1" data-name="Layer 1" xmlns="http://www.w3.org/2000/svg" viewBox="0 0 331.95 271.31"><defs><style>.cls-1,.cls-5{fill:#e84242;}.cls-2,.cls-4{fill:#419c9c;}.cls-3,.cls-4,.cls-5{isolation:isolate;}.cls-4,.cls-5{font-size:52.89px;font-family:IRANSans-Light, IRANSans;}</style></defs><title>logo</title><path class="cls-1" d="M96.34,23.14l101.53,85.1a11.5,11.5,0,0,0,15.9-1.19l1.63-1.85A10.87,10.87,0,0,0,214.56,90l-.37-.32L112.66,4.57a11.5,11.5,0,0,0-15.9,1.19L95.13,7.6A10.87,10.87,0,0,0,96,22.82Z" transform="translate(-4.44 -0.96)"/><path class="cls-2" d="M207.62,116.41l57,47.76a11.5,11.5,0,0,0,15.9-1.19l1.63-1.85a10.87,10.87,0,0,0-.86-15.22l-.35-.3-57-47.76A11.5,11.5,0,0,0,208,99l-1.66,1.84a10.87,10.87,0,0,0,.89,15.22Z" transform="translate(-4.44 -0.96)"/><path class="cls-2" d="M312.77,43.5,261.17,148.34a10.94,10.94,0,0,0,5,14.54l.32.15,2.25,1.06a11.44,11.44,0,0,0,15-5.16L335.3,54.08a10.94,10.94,0,0,0-5-14.54L330,39.4l-2.25-1.06A11.44,11.44,0,0,0,312.77,43.5Z" transform="translate(-4.44 -0.96)"/><path class="cls-2" d="M315.72,39.14l-101,46.3a10.93,10.93,0,0,0-5.55,14.33l.14.32,1.06,2.2a11.43,11.43,0,0,0,15,5.28l101-46.3a10.93,10.93,0,0,0,5.55-14.33l-.14-.32-1.06-2.2A11.43,11.43,0,0,0,315.72,39.14Z" transform="translate(-4.44 -0.96)"/><path class="cls-1" d="M92.92,7.21,5.52,185a10.94,10.94,0,0,0,5,14.54l.32.15,2.25,1.06a11.44,11.44,0,0,0,15-5.16L115.5,17.8a10.94,10.94,0,0,0-5-14.55l-.32-.15L108,2.05A11.44,11.44,0,0,0,92.92,7.21Z" transform="translate(-4.44 -0.96)"/><path class="cls-1" d="M252,68.46,12.3,178.39a10.9,10.9,0,0,0-5.58,14.27l.17.38,1,2.24a11.4,11.4,0,0,0,15,5.28L262.6,90.6a6.44,6.44,0,0,0,3.29-8.43l-.1-.22-5-10.36A6.73,6.73,0,0,0,252,68.46Z" transform="translate(-4.44 -0.96)"/><g class="cls-3"><text class="cls-4" transform="translate(39.15 237.35) scale(1.01 1)">H i</text><text class="cls-5" transform="translate(106.13 237.35) scale(1.01 1)"><tspan xml:space="preserve"> N e x t</tspan></text></g></svg>